<svg xmlns="http://www.w3.org/2000/svg" viewBox="0 0 800 450" width="800" height="450">
  <defs>
    <linearGradient id="d" x1="0" y1="0" x2="1" y2="1">
      <stop offset="0%" stop-color="#f8fafc" />
      <stop offset="100%" stop-color="#fff7ed" />
    </linearGradient>
  </defs>
  <rect width="800" height="450" fill="url(#d)" />
  <circle cx="620" cy="130" r="110" fill="#f97316" opacity="0.08" />

  <g transform="translate(240,120)">
    <!-- puppy bowl -->
    <ellipse cx="70" cy="150" rx="50" ry="16" fill="#e2e8f0" />
    <path d="M25,95 Q70,165 115,95 L115,90 Q70,160 25,90 Z" fill="#ffffff" stroke="#cbd5e1" stroke-width="3" />
    <ellipse cx="70" cy="90" rx="45" ry="14" fill="#ffedd5" stroke="#f97316" stroke-width="3" />

    <!-- kitten bowl -->
    <ellipse cx="230" cy="150" rx="50" ry="16" fill="#e2e8f0" />
    <path d="M185,95 Q230,165 275,95 L275,90 Q230,160 185,90 Z" fill="#ffffff" stroke="#cbd5e1" stroke-width="3" />
    <ellipse cx="230" cy="90" rx="45" ry="14" fill="#fce7f3" stroke="#ec4899" stroke-width="3" />

    <!-- paw -->
    <circle cx="335" cy="120" r="14" fill="#533afd" />
    <circle cx="315" cy="95" r="8" fill="#533afd" />
    <circle cx="335" cy="85" r="8" fill="#533afd" />
    <circle cx="355" cy="95" r="8" fill="#533afd" />

    <text x="200" y="230" text-anchor="middle" font-family="ui-sans-serif, system-ui, -apple-system, sans-serif" font-size="26" fill="#0f172a" font-weight="500">Kitten &amp; Puppy Nutrition Guide</text>
  </g>
</svg>
